<?xml version="1.0" encoding="UTF-8"?><svg xmlns="http://www.w3.org/2000/svg" xmlns:xlink="http://www.w3.org/1999/xlink" contentScriptType="application/ecmascript" contentStyleType="text/css" height="788px" preserveAspectRatio="none" style="width:304px;height:788px;" version="1.1" viewBox="0 0 304 788" width="304px" zoomAndPan="magnify">
    <defs>
        <filter height="300%" id="fh0ai9ldrpix3" width="300%" x="-1" y="-1">
            <feGaussianBlur result="blurOut" stdDeviation="2.0"/>
            <feColorMatrix in="blurOut" result="blurOut2" type="matrix" values="0 0 0 0 0 0 0 0 0 0 0 0 0 0 0 0 0 0 .4 0"/>
            <feOffset dx="4.0" dy="4.0" in="blurOut2" result="blurOut3"/>
            <feBlend in="SourceGraphic" in2="blurOut3" mode="normal"/>
        </filter>
    </defs>
    <g>
        <!--class party-->
        <rect fill="#FEFECE" filter="url(#fh0ai9ldrpix3)" height="131.0156" style="stroke: #A80036; stroke-width: 1.5;" width="79" x="86.5" y="158"/>
        <ellipse cx="110.95" cy="174" fill="#ADD1B2" rx="11" ry="11" style="stroke: #A80036; stroke-width: 1.0;"/>
        <path d="M113.7156,169.875 Q113.8719,169.6563 114.0594,169.5469 Q114.2469,169.4375 114.4656,169.4375 Q114.8406,169.4375 115.075,169.6953 Q115.3094,169.9531 115.3094,170.5625 L115.3094,172.0156 Q115.3094,172.625 115.075,172.8906 Q114.8406,173.1563 114.4656,173.1563 Q114.1219,173.1563 113.9188,172.9531 Q113.7156,172.7656 113.6063,172.25 Q113.5594,171.8906 113.3719,171.7031 Q113.0438,171.3281 112.4344,171.1094 Q111.825,170.8906 111.2,170.8906 Q110.4344,170.8906 109.8016,171.2188 Q109.1688,171.5469 108.6766,172.2969 Q108.1844,173.0469 108.1844,174.0781 L108.1844,175.1719 Q108.1844,176.4063 109.075,177.2266 Q109.9656,178.0469 111.5594,178.0469 Q112.4969,178.0469 113.1531,177.7969 Q113.5438,177.6406 113.9656,177.2031 Q114.2313,176.9375 114.3797,176.8594 Q114.5281,176.7813 114.7313,176.7813 Q115.0594,176.7813 115.3172,177.0391 Q115.575,177.2969 115.575,177.6406 Q115.575,177.9844 115.2313,178.3906 Q114.7313,178.9688 113.9344,179.2969 Q112.8563,179.75 111.5594,179.75 Q110.0438,179.75 108.8406,179.125 Q107.8563,178.625 107.1688,177.5547 Q106.4813,176.4844 106.4813,175.2031 L106.4813,174.0469 Q106.4813,172.7188 107.0984,171.5703 Q107.7156,170.4219 108.8094,169.8047 Q109.9031,169.1875 111.1375,169.1875 Q111.8719,169.1875 112.5203,169.3516 Q113.1688,169.5156 113.7156,169.875 Z "/>
        <text fill="#000000" font-family="sans-serif" font-size="12" lengthAdjust="spacingAndGlyphs" textLength="26" x="127.05" y="178.9102">party</text>
        <line style="stroke: #A80036; stroke-width: 1.5;" x1="87.5" x2="164.5" y1="190" y2="190"/>
        <text fill="#000000" font-family="sans-serif" font-size="11" lengthAdjust="spacingAndGlyphs" textLength="8" x="92.5" y="205.4189">id</text>
        <text fill="#000000" font-family="sans-serif" font-size="11" lengthAdjust="spacingAndGlyphs" textLength="51" x="92.5" y="219.2549">partyname</text>
        <text fill="#000000" font-family="sans-serif" font-size="11" lengthAdjust="spacingAndGlyphs" textLength="36" x="92.5" y="233.0908">user_id</text>
        <text fill="#000000" font-family="sans-serif" font-size="11" lengthAdjust="spacingAndGlyphs" textLength="67" x="92.5" y="246.9268">partyAddress</text>
        <text fill="#000000" font-family="sans-serif" font-size="11" lengthAdjust="spacingAndGlyphs" textLength="53" x="92.5" y="260.7627">partyTown</text>
        <text fill="#000000" font-family="sans-serif" font-size="11" lengthAdjust="spacingAndGlyphs" textLength="63" x="92.5" y="274.5986">partyCountry</text>
        <line style="stroke: #A80036; stroke-width: 1.5;" x1="87.5" x2="164.5" y1="281.0156" y2="281.0156"/>
        <!--class users-->
        <rect fill="#FEFECE" filter="url(#fh0ai9ldrpix3)" height="89.5078" style="stroke: #A80036; stroke-width: 1.5;" width="64" x="140" y="8"/>
        <ellipse cx="155" cy="24" fill="#ADD1B2" rx="11" ry="11" style="stroke: #A80036; stroke-width: 1.0;"/>
        <path d="M157.7656,19.875 Q157.9219,19.6563 158.1094,19.5469 Q158.2969,19.4375 158.5156,19.4375 Q158.8906,19.4375 159.125,19.6953 Q159.3594,19.9531 159.3594,20.5625 L159.3594,22.0156 Q159.3594,22.625 159.125,22.8906 Q158.8906,23.1563 158.5156,23.1563 Q158.1719,23.1563 157.9688,22.9531 Q157.7656,22.7656 157.6563,22.25 Q157.6094,21.8906 157.4219,21.7031 Q157.0938,21.3281 156.4844,21.1094 Q155.875,20.8906 155.25,20.8906 Q154.4844,20.8906 153.8516,21.2188 Q153.2188,21.5469 152.7266,22.2969 Q152.2344,23.0469 152.2344,24.0781 L152.2344,25.1719 Q152.2344,26.4063 153.125,27.2266 Q154.0156,28.0469 155.6094,28.0469 Q156.5469,28.0469 157.2031,27.7969 Q157.5938,27.6406 158.0156,27.2031 Q158.2813,26.9375 158.4297,26.8594 Q158.5781,26.7813 158.7813,26.7813 Q159.1094,26.7813 159.3672,27.0391 Q159.625,27.2969 159.625,27.6406 Q159.625,27.9844 159.2813,28.3906 Q158.7813,28.9688 157.9844,29.2969 Q156.9063,29.75 155.6094,29.75 Q154.0938,29.75 152.8906,29.125 Q151.9063,28.625 151.2188,27.5547 Q150.5313,26.4844 150.5313,25.2031 L150.5313,24.0469 Q150.5313,22.7188 151.1484,21.5703 Q151.7656,20.4219 152.8594,19.8047 Q153.9531,19.1875 155.1875,19.1875 Q155.9219,19.1875 156.5703,19.3516 Q157.2188,19.5156 157.7656,19.875 Z "/>
        <text fill="#000000" font-family="sans-serif" font-size="12" lengthAdjust="spacingAndGlyphs" textLength="32" x="169" y="28.9102">users</text>
        <line style="stroke: #A80036; stroke-width: 1.5;" x1="141" x2="203" y1="40" y2="40"/>
        <text fill="#000000" font-family="sans-serif" font-size="11" lengthAdjust="spacingAndGlyphs" textLength="8" x="146" y="55.4189">id</text>
        <text fill="#000000" font-family="sans-serif" font-size="11" lengthAdjust="spacingAndGlyphs" textLength="26" x="146" y="69.2549">name</text>
        <text fill="#000000" font-family="sans-serif" font-size="11" lengthAdjust="spacingAndGlyphs" textLength="24" x="146" y="83.0908">email</text>
        <line style="stroke: #A80036; stroke-width: 1.5;" x1="141" x2="203" y1="89.5078" y2="89.5078"/>
        <!--class wishlists-->
        <rect fill="#FEFECE" filter="url(#fh0ai9ldrpix3)" height="103.3438" style="stroke: #A80036; stroke-width: 1.5;" width="90" x="6" y="363"/>
        <ellipse cx="25.05" cy="379" fill="#ADD1B2" rx="11" ry="11" style="stroke: #A80036; stroke-width: 1.0;"/>
        <path d="M27.8156,374.875 Q27.9719,374.6563 28.1594,374.5469 Q28.3469,374.4375 28.5656,374.4375 Q28.9406,374.4375 29.175,374.6953 Q29.4094,374.9531 29.4094,375.5625 L29.4094,377.0156 Q29.4094,377.625 29.175,377.8906 Q28.9406,378.1563 28.5656,378.1563 Q28.2219,378.1563 28.0188,377.9531 Q27.8156,377.7656 27.7063,377.25 Q27.6594,376.8906 27.4719,376.7031 Q27.1438,376.3281 26.5344,376.1094 Q25.925,375.8906 25.3,375.8906 Q24.5344,375.8906 23.9016,376.2188 Q23.2688,376.5469 22.7766,377.2969 Q22.2844,378.0469 22.2844,379.0781 L22.2844,380.1719 Q22.2844,381.4063 23.175,382.2266 Q24.0656,383.0469 25.6594,383.0469 Q26.5969,383.0469 27.2531,382.7969 Q27.6438,382.6406 28.0656,382.2031 Q28.3313,381.9375 28.4797,381.8594 Q28.6281,381.7813 28.8313,381.7813 Q29.1594,381.7813 29.4172,382.0391 Q29.675,382.2969 29.675,382.6406 Q29.675,382.9844 29.3313,383.3906 Q28.8313,383.9688 28.0344,384.2969 Q26.9563,384.75 25.6594,384.75 Q24.1438,384.75 22.9406,384.125 Q21.9563,383.625 21.2688,382.5547 Q20.5813,381.4844 20.5813,380.2031 L20.5813,379.0469 Q20.5813,377.7188 21.1984,376.5703 Q21.8156,375.4219 22.9094,374.8047 Q24.0031,374.1875 25.2375,374.1875 Q25.9719,374.1875 26.6203,374.3516 Q27.2688,374.5156 27.8156,374.875 Z "/>
        <text fill="#000000" font-family="sans-serif" font-size="12" lengthAdjust="spacingAndGlyphs" textLength="49" x="39.95" y="383.9102">wishlists</text>
        <line style="stroke: #A80036; stroke-width: 1.5;" x1="7" x2="95" y1="395" y2="395"/>
        <text fill="#000000" font-family="sans-serif" font-size="11" lengthAdjust="spacingAndGlyphs" textLength="8" x="12" y="410.4189">id</text>
        <text fill="#000000" font-family="sans-serif" font-size="11" lengthAdjust="spacingAndGlyphs" textLength="39" x="12" y="424.2549">party_id</text>
        <text fill="#000000" font-family="sans-serif" font-size="11" lengthAdjust="spacingAndGlyphs" textLength="36" x="12" y="438.0908">user_id</text>
        <text fill="#000000" font-family="sans-serif" font-size="11" lengthAdjust="spacingAndGlyphs" textLength="78" x="12" y="451.9268">tickets : boolean</text>
        <line style="stroke: #A80036; stroke-width: 1.5;" x1="7" x2="95" y1="458.3438" y2="458.3438"/>
        <!--class articles-->
        <rect fill="#FEFECE" filter="url(#fh0ai9ldrpix3)" height="89.5078" style="stroke: #A80036; stroke-width: 1.5;" width="72" x="90" y="540"/>
        <ellipse cx="105" cy="556" fill="#ADD1B2" rx="11" ry="11" style="stroke: #A80036; stroke-width: 1.0;"/>
        <path d="M107.7656,551.875 Q107.9219,551.6563 108.1094,551.5469 Q108.2969,551.4375 108.5156,551.4375 Q108.8906,551.4375 109.125,551.6953 Q109.3594,551.9531 109.3594,552.5625 L109.3594,554.0156 Q109.3594,554.625 109.125,554.8906 Q108.8906,555.1563 108.5156,555.1563 Q108.1719,555.1563 107.9688,554.9531 Q107.7656,554.7656 107.6563,554.25 Q107.6094,553.8906 107.4219,553.7031 Q107.0938,553.3281 106.4844,553.1094 Q105.875,552.8906 105.25,552.8906 Q104.4844,552.8906 103.8516,553.2188 Q103.2188,553.5469 102.7266,554.2969 Q102.2344,555.0469 102.2344,556.0781 L102.2344,557.1719 Q102.2344,558.4063 103.125,559.2266 Q104.0156,560.0469 105.6094,560.0469 Q106.5469,560.0469 107.2031,559.7969 Q107.5938,559.6406 108.0156,559.2031 Q108.2813,558.9375 108.4297,558.8594 Q108.5781,558.7813 108.7813,558.7813 Q109.1094,558.7813 109.3672,559.0391 Q109.625,559.2969 109.625,559.6406 Q109.625,559.9844 109.2813,560.3906 Q108.7813,560.9688 107.9844,561.2969 Q106.9063,561.75 105.6094,561.75 Q104.0938,561.75 102.8906,561.125 Q101.9063,560.625 101.2188,559.5547 Q100.5313,558.4844 100.5313,557.2031 L100.5313,556.0469 Q100.5313,554.7188 101.1484,553.5703 Q101.7656,552.4219 102.8594,551.8047 Q103.9531,551.1875 105.1875,551.1875 Q105.9219,551.1875 106.5703,551.3516 Q107.2188,551.5156 107.7656,551.875 Z "/>
        <text fill="#000000" font-family="sans-serif" font-size="12" lengthAdjust="spacingAndGlyphs" textLength="40" x="119" y="560.9102">articles</text>
        <line style="stroke: #A80036; stroke-width: 1.5;" x1="91" x2="161" y1="572" y2="572"/>
        <text fill="#000000" font-family="sans-serif" font-size="11" lengthAdjust="spacingAndGlyphs" textLength="8" x="96" y="587.4189">id</text>
        <text fill="#000000" font-family="sans-serif" font-size="11" lengthAdjust="spacingAndGlyphs" textLength="39" x="96" y="601.2549">party_id</text>
        <text fill="#000000" font-family="sans-serif" font-size="11" lengthAdjust="spacingAndGlyphs" textLength="55" x="96" y="615.0908">articlename</text>
        <line style="stroke: #A80036; stroke-width: 1.5;" x1="91" x2="161" y1="621.5078" y2="621.5078"/>
        <!--class articleList-->
        <rect fill="#FEFECE" filter="url(#fh0ai9ldrpix3)" height="89.5078" style="stroke: #A80036; stroke-width: 1.5;" width="85" x="165.5" y="690"/>
        <ellipse cx="180.5" cy="706" fill="#ADD1B2" rx="11" ry="11" style="stroke: #A80036; stroke-width: 1.0;"/>
        <path d="M183.2656,701.875 Q183.4219,701.6563 183.6094,701.5469 Q183.7969,701.4375 184.0156,701.4375 Q184.3906,701.4375 184.625,701.6953 Q184.8594,701.9531 184.8594,702.5625 L184.8594,704.0156 Q184.8594,704.625 184.625,704.8906 Q184.3906,705.1563 184.0156,705.1563 Q183.6719,705.1563 183.4688,704.9531 Q183.2656,704.7656 183.1563,704.25 Q183.1094,703.8906 182.9219,703.7031 Q182.5938,703.3281 181.9844,703.1094 Q181.375,702.8906 180.75,702.8906 Q179.9844,702.8906 179.3516,703.2188 Q178.7188,703.5469 178.2266,704.2969 Q177.7344,705.0469 177.7344,706.0781 L177.7344,707.1719 Q177.7344,708.4063 178.625,709.2266 Q179.5156,710.0469 181.1094,710.0469 Q182.0469,710.0469 182.7031,709.7969 Q183.0938,709.6406 183.5156,709.2031 Q183.7813,708.9375 183.9297,708.8594 Q184.0781,708.7813 184.2813,708.7813 Q184.6094,708.7813 184.8672,709.0391 Q185.125,709.2969 185.125,709.6406 Q185.125,709.9844 184.7813,710.3906 Q184.2813,710.9688 183.4844,711.2969 Q182.4063,711.75 181.1094,711.75 Q179.5938,711.75 178.3906,711.125 Q177.4063,710.625 176.7188,709.5547 Q176.0313,708.4844 176.0313,707.2031 L176.0313,706.0469 Q176.0313,704.7188 176.6484,703.5703 Q177.2656,702.4219 178.3594,701.8047 Q179.4531,701.1875 180.6875,701.1875 Q181.4219,701.1875 182.0703,701.3516 Q182.7188,701.5156 183.2656,701.875 Z "/>
        <text fill="#000000" font-family="sans-serif" font-size="12" lengthAdjust="spacingAndGlyphs" textLength="53" x="194.5" y="710.9102">articleList</text>
        <line style="stroke: #A80036; stroke-width: 1.5;" x1="166.5" x2="249.5" y1="722" y2="722"/>
        <text fill="#000000" font-family="sans-serif" font-size="11" lengthAdjust="spacingAndGlyphs" textLength="8" x="171.5" y="737.4189">id</text>
        <text fill="#000000" font-family="sans-serif" font-size="11" lengthAdjust="spacingAndGlyphs" textLength="36" x="171.5" y="751.2549">user_id</text>
        <text fill="#000000" font-family="sans-serif" font-size="11" lengthAdjust="spacingAndGlyphs" textLength="49" x="171.5" y="765.0908">articles_id</text>
        <line style="stroke: #A80036; stroke-width: 1.5;" x1="166.5" x2="249.5" y1="771.5078" y2="771.5078"/>
        <!--class mail-->
        <rect fill="#FEFECE" filter="url(#fh0ai9ldrpix3)" height="48" style="stroke: #A80036; stroke-width: 1.5;" width="56" x="239" y="29"/>
        <ellipse cx="254" cy="45" fill="#ADD1B2" rx="11" ry="11" style="stroke: #A80036; stroke-width: 1.0;"/>
        <path d="M256.7656,40.875 Q256.9219,40.6563 257.1094,40.5469 Q257.2969,40.4375 257.5156,40.4375 Q257.8906,40.4375 258.125,40.6953 Q258.3594,40.9531 258.3594,41.5625 L258.3594,43.0156 Q258.3594,43.625 258.125,43.8906 Q257.8906,44.1563 257.5156,44.1563 Q257.1719,44.1563 256.9688,43.9531 Q256.7656,43.7656 256.6563,43.25 Q256.6094,42.8906 256.4219,42.7031 Q256.0938,42.3281 255.4844,42.1094 Q254.875,41.8906 254.25,41.8906 Q253.4844,41.8906 252.8516,42.2188 Q252.2188,42.5469 251.7266,43.2969 Q251.2344,44.0469 251.2344,45.0781 L251.2344,46.1719 Q251.2344,47.4063 252.125,48.2266 Q253.0156,49.0469 254.6094,49.0469 Q255.5469,49.0469 256.2031,48.7969 Q256.5938,48.6406 257.0156,48.2031 Q257.2813,47.9375 257.4297,47.8594 Q257.5781,47.7813 257.7813,47.7813 Q258.1094,47.7813 258.3672,48.0391 Q258.625,48.2969 258.625,48.6406 Q258.625,48.9844 258.2813,49.3906 Q257.7813,49.9688 256.9844,50.2969 Q255.9063,50.75 254.6094,50.75 Q253.0938,50.75 251.8906,50.125 Q250.9063,49.625 250.2188,48.5547 Q249.5313,47.4844 249.5313,46.2031 L249.5313,45.0469 Q249.5313,43.7188 250.1484,42.5703 Q250.7656,41.4219 251.8594,40.8047 Q252.9531,40.1875 254.1875,40.1875 Q254.9219,40.1875 255.5703,40.3516 Q256.2188,40.5156 256.7656,40.875 Z "/>
        <text fill="#000000" font-family="sans-serif" font-size="12" lengthAdjust="spacingAndGlyphs" textLength="24" x="268" y="49.9102">mail</text>
        <line style="stroke: #A80036; stroke-width: 1.5;" x1="240" x2="294" y1="61" y2="61"/>
        <line style="stroke: #A80036; stroke-width: 1.5;" x1="240" x2="294" y1="69" y2="69"/>
        <!--class participants-->
        <rect fill="#FEFECE" filter="url(#fh0ai9ldrpix3)" height="131.0156" style="stroke: #A80036; stroke-width: 1.5;" width="106" x="131" y="349"/>
        <ellipse cx="150.5" cy="365" fill="#ADD1B2" rx="11" ry="11" style="stroke: #A80036; stroke-width: 1.0;"/>
        <path d="M153.2656,360.875 Q153.4219,360.6563 153.6094,360.5469 Q153.7969,360.4375 154.0156,360.4375 Q154.3906,360.4375 154.625,360.6953 Q154.8594,360.9531 154.8594,361.5625 L154.8594,363.0156 Q154.8594,363.625 154.625,363.8906 Q154.3906,364.1563 154.0156,364.1563 Q153.6719,364.1563 153.4688,363.9531 Q153.2656,363.7656 153.1563,363.25 Q153.1094,362.8906 152.9219,362.7031 Q152.5938,362.3281 151.9844,362.1094 Q151.375,361.8906 150.75,361.8906 Q149.9844,361.8906 149.3516,362.2188 Q148.7188,362.5469 148.2266,363.2969 Q147.7344,364.0469 147.7344,365.0781 L147.7344,366.1719 Q147.7344,367.4063 148.625,368.2266 Q149.5156,369.0469 151.1094,369.0469 Q152.0469,369.0469 152.7031,368.7969 Q153.0938,368.6406 153.5156,368.2031 Q153.7813,367.9375 153.9297,367.8594 Q154.0781,367.7813 154.2813,367.7813 Q154.6094,367.7813 154.8672,368.0391 Q155.125,368.2969 155.125,368.6406 Q155.125,368.9844 154.7813,369.3906 Q154.2813,369.9688 153.4844,370.2969 Q152.4063,370.75 151.1094,370.75 Q149.5938,370.75 148.3906,370.125 Q147.4063,369.625 146.7188,368.5547 Q146.0313,367.4844 146.0313,366.2031 L146.0313,365.0469 Q146.0313,363.7188 146.6484,362.5703 Q147.2656,361.4219 148.3594,360.8047 Q149.4531,360.1875 150.6875,360.1875 Q151.4219,360.1875 152.0703,360.3516 Q152.7188,360.5156 153.2656,360.875 Z "/>
        <text fill="#000000" font-family="sans-serif" font-size="12" lengthAdjust="spacingAndGlyphs" textLength="64" x="165.5" y="369.9102">participants</text>
        <line style="stroke: #A80036; stroke-width: 1.5;" x1="132" x2="236" y1="381" y2="381"/>
        <text fill="#000000" font-family="sans-serif" font-size="11" lengthAdjust="spacingAndGlyphs" textLength="8" x="137" y="396.4189">id</text>
        <text fill="#000000" font-family="sans-serif" font-size="11" lengthAdjust="spacingAndGlyphs" textLength="39" x="137" y="410.2549">party_id</text>
        <text fill="#000000" font-family="sans-serif" font-size="11" lengthAdjust="spacingAndGlyphs" textLength="36" x="137" y="424.0908">user_id</text>
        <text fill="#000000" font-family="sans-serif" font-size="11" lengthAdjust="spacingAndGlyphs" textLength="94" x="137" y="437.9268">participate :boolean</text>
        <text fill="#000000" font-family="sans-serif" font-size="11" lengthAdjust="spacingAndGlyphs" textLength="93" x="137" y="451.7627">sendInvitation :date</text>
        <line style="stroke: #A80036; stroke-width: 1.5;" x1="132" x2="236" y1="458.1797" y2="458.1797"/>
        <text fill="#000000" font-family="sans-serif" font-size="11" lengthAdjust="spacingAndGlyphs" textLength="50" x="137" y="473.5986">sendMail()</text>
        <path d="M159.914,98.271 C154.936,116.505 149.071,137.991 143.63,157.922 " fill="none" style="stroke: #A80036; stroke-width: 1.0;"/>
        <text fill="#000000" font-family="sans-serif" font-size="13" lengthAdjust="spacingAndGlyphs" textLength="7" x="150.8196" y="118.9811">1</text>
        <text fill="#000000" font-family="sans-serif" font-size="13" lengthAdjust="spacingAndGlyphs" textLength="5" x="140.3794" y="146.9291">*</text>
        <path d="M100.399,289.014 C90.8086,313.182 80.0599,340.269 71.044,362.989 " fill="none" style="stroke: #A80036; stroke-width: 1.0;"/>
        <text fill="#000000" font-family="sans-serif" font-size="13" lengthAdjust="spacingAndGlyphs" textLength="7" x="90.2161" y="310.5681">1</text>
        <text fill="#000000" font-family="sans-serif" font-size="13" lengthAdjust="spacingAndGlyphs" textLength="15" x="57.808" y="352.1159">0..</text>
        <path d="M139.773,76.385 C115.661,95.132 84.3129,124.206 69,158 C39.0843,224.021 39.967,309.551 44.5564,362.98 " fill="none" style="stroke: #A80036; stroke-width: 1.0;"/>
        <text fill="#000000" font-family="sans-serif" font-size="13" lengthAdjust="spacingAndGlyphs" textLength="7" x="124.9577" y="77.3379">1</text>
        <text fill="#000000" font-family="sans-serif" font-size="13" lengthAdjust="spacingAndGlyphs" textLength="7" x="36.1581" y="352.1057">1</text>
        <path d="M145.798,289.014 C151.738,308.37 158.252,329.598 164.193,348.956 " fill="none" style="stroke: #A80036; stroke-width: 1.0;"/>
        <text fill="#000000" font-family="sans-serif" font-size="13" lengthAdjust="spacingAndGlyphs" textLength="7" x="140.5806" y="310.5681">1</text>
        <text fill="#000000" font-family="sans-serif" font-size="13" lengthAdjust="spacingAndGlyphs" textLength="20" x="140.7466" y="337.967">0..*</text>
        <path d="M177.676,98.201 C179.784,116.652 181.924,138.33 183,158 C186.549,222.887 186.364,297.182 185.556,348.868 " fill="none" style="stroke: #A80036; stroke-width: 1.0;"/>
        <text fill="#000000" font-family="sans-serif" font-size="13" lengthAdjust="spacingAndGlyphs" textLength="7" x="170.9684" y="118.9017">1</text>
        <text fill="#000000" font-family="sans-serif" font-size="13" lengthAdjust="spacingAndGlyphs" textLength="7" x="178.3434" y="338.328">1</text>
        <path d="M73.5025,466.056 C83.9443,489.515 96.2435,517.147 106.311,539.766 " fill="none" style="stroke: #A80036; stroke-width: 1.0;"/>
        <text fill="#000000" font-family="sans-serif" font-size="13" lengthAdjust="spacingAndGlyphs" textLength="7" x="69.1747" y="487.9267">1</text>
        <text fill="#000000" font-family="sans-serif" font-size="13" lengthAdjust="spacingAndGlyphs" textLength="5" x="97.9139" y="529.1743">*</text>
        <path d="M190.06,98.079 C197.171,116.416 205.043,138.044 211,158 C252.301,296.348 266.916,336.197 254,480 C247.325,554.317 229.874,639.408 218.488,689.8215 " fill="none" style="stroke: #A80036; stroke-width: 1.0;"/>
        <text fill="#000000" font-family="sans-serif" font-size="13" lengthAdjust="spacingAndGlyphs" textLength="7" x="185.1075" y="119.0977">1</text>
        <text fill="#000000" font-family="sans-serif" font-size="13" lengthAdjust="spacingAndGlyphs" textLength="5" x="214.7112" y="679.2377">*</text>
        <path d="M150.381,630.004 C160.861,648.92 173.086,670.984 183.572,689.9098 " fill="none" style="stroke: #A80036; stroke-width: 1.0;"/>
        <text fill="#000000" font-family="sans-serif" font-size="13" lengthAdjust="spacingAndGlyphs" textLength="7" x="146.3174" y="651.0121">1</text>
        <text fill="#000000" font-family="sans-serif" font-size="13" lengthAdjust="spacingAndGlyphs" textLength="5" x="174.2804" y="679.0111">*</text>
        <!--
@startuml
skinparam classAttributeIconSize 0

class party{
    {field} id
    {field} partyname
    {field} user_id
    {field} partyAddress
    {field} partyTown
    {field} partyCountry
}
class users{
    {field} id
    {field} name
    {field} email
}
class wishlists{
    {field} id
    {field} party_id
    {field} user_id
    {field} tickets : boolean

}
class articles{
    {field} id
    {field} party_id
    {field} articlename
}
class articleList{
    {field} id
    {field} user_id
    {field} articles_id
}
class mail
class participants{
    {field} id
    {field} party_id
    {field} user_id
    {field} participate :boolean
    {field} sendInvitation :date
    sendMail()
}

users "1"- -"*" party
party "1"- -"0.." wishlists
users "1"- -"1" wishlists
party "1"- -"0..*" participants
users "1"- -"1" participants
wishlists "1"- -"*" articles
users "1"- -"*" articleList
articles "1"- -"*" articleList

@enduml

PlantUML version 2017.11(Wed Apr 19 18:18:59 CEST 2017)
(GPL source distribution)
Java Runtime: Java(TM) SE Runtime Environment
JVM: Java HotSpot(TM) 64-Bit Server VM
Java Version: 1.8.0_112-b15
Operating System: Windows 10
OS Version: 10.0
Default Encoding: Cp1252
Language: nl
Country: NL
-->
    </g>
</svg>
